<?xml version="1.0" standalone="no"?>
<!DOCTYPE svg PUBLIC "-//W3C//DTD SVG 20010904//EN"
 "http://www.w3.org/TR/2001/REC-SVG-20010904/DTD/svg10.dtd">
<svg version="1.0" xmlns="http://www.w3.org/2000/svg"
 width="625.000000pt" height="625.000000pt" viewBox="0 0 625.000000 625.000000"
 preserveAspectRatio="xMidYMid meet">
<metadata>
Created by potrace 1.11, written by Peter Selinger 2001-2013
</metadata>
<g transform="translate(0.000000,625.000000) scale(0.100000,-0.100000)"
fill="#000000" stroke="none">
<path d="M4924 6164 c-87 -96 -73 -81 -179 -199 -49 -55 -94 -105 -100 -111
-5 -6 -41 -46 -80 -90 -38 -43 -77 -85 -85 -94 -8 -9 -89 -99 -180 -200 -154
-174 -199 -223 -260 -290 -14 -15 -40 -45 -59 -66 -51 -58 -195 -218 -201
-224 -3 -3 -41 -45 -85 -94 -44 -50 -87 -97 -95 -106 -21 -23 -151 -168 -170
-190 -9 -10 -49 -55 -90 -100 -41 -45 -76 -86 -78 -91 -7 -17 -39 -9 -262 67
-124 42 -391 132 -595 201 -203 68 -377 126 -385 130 -8 3 -166 57 -350 119
l-335 115 -89 -93 c-118 -123 -280 -318 -264 -318 2 0 197 -66 433 -146 237
-80 482 -163 545 -184 201 -67 1170 -396 1294 -439 129 -45 151 -48 163 -27 4
7 42 51 83 96 41 46 82 90 90 100 31 35 146 163 178 198 30 33 33 34 27 12 -9
-32 -120 -376 -276 -860 -115 -353 -148 -457 -244 -755 -53 -165 -128 -397
-167 -515 -38 -118 -71 -222 -73 -230 -2 -8 -19 -62 -38 -120 -31 -94 -68
-210 -234 -725 -24 -77 -55 -171 -68 -210 -13 -38 -57 -178 -100 -310 -42
-132 -88 -273 -101 -314 -14 -40 -23 -75 -21 -78 3 -2 93 108 200 244 269 341
631 799 666 842 16 20 67 84 113 142 103 132 408 519 425 539 7 8 51 65 99
125 47 61 98 126 114 145 15 19 64 80 107 135 43 55 164 208 269 340 104 132
241 305 304 385 63 80 117 147 120 150 3 3 23 29 45 58 36 47 61 62 78 46 3
-4 164 -60 358 -124 l351 -119 -6 189 c-3 103 -8 194 -10 201 -3 8 -7 43 -11
79 -3 35 -9 67 -13 70 -4 4 -63 25 -132 48 -69 22 -258 86 -420 141 -162 54
-303 101 -312 103 -12 2 -71 -66 -198 -227 -100 -126 -189 -239 -198 -250 -9
-11 -57 -72 -107 -135 -49 -63 -95 -122 -102 -130 -6 -8 -36 -45 -65 -81 -29
-37 -99 -125 -154 -195 -56 -71 -111 -140 -123 -153 -12 -13 -21 -27 -21 -30
-1 -3 -14 -22 -31 -41 l-29 -35 16 55 c9 30 45 143 79 250 35 107 107 330 160
495 184 571 294 911 380 1177 47 147 86 271 87 275 0 5 5 19 10 33 5 14 75
228 154 475 80 248 149 461 154 475 5 14 43 133 86 265 42 132 78 243 81 248
13 22 -12 -1 -73 -69z"/>
<path d="M2499 5579 c-13 -4 -73 -22 -134 -40 -179 -52 -368 -131 -514 -213
l-44 -25 29 -12 c16 -6 76 -27 134 -46 58 -18 134 -44 170 -57 36 -13 318
-108 627 -211 l562 -186 23 23 c13 13 57 62 98 108 41 47 80 90 86 95 31 30
156 176 153 179 -2 2 -266 91 -585 198 -420 140 -588 192 -605 187z"/>
<path d="M692 3978 c-55 -141 -102 -292 -105 -335 l-2 -37 165 -54 c91 -29
174 -57 185 -62 11 -5 432 -144 935 -310 503 -166 980 -324 1060 -351 79 -26
146 -47 148 -45 6 7 153 469 149 472 -2 2 -145 50 -318 107 -1739 576 -2166
717 -2171 717 -4 0 -24 -46 -46 -102z"/>
<path d="M524 2948 c3 -84 8 -171 11 -193 13 -106 27 -181 33 -186 6 -6 249
-87 1731 -579 250 -82 459 -150 466 -150 6 0 33 69 60 153 27 83 61 189 76
234 l27 82 -1192 396 c-657 217 -1199 395 -1206 395 -10 0 -11 -34 -6 -152z"/>
<path d="M781 1918 c35 -70 91 -170 142 -253 45 -74 100 -153 161 -232 55 -72
80 -96 111 -108 138 -52 1271 -422 1277 -417 10 11 152 461 147 466 -5 5
-1866 626 -1875 626 -2 0 14 -37 37 -82z"/>
</g>
</svg>
